<svg xmlns="http://www.w3.org/2000/svg" xmlns:xlink="http://www.w3.org/1999/xlink" width="250" zoomAndPan="magnify" viewBox="0 0 187.5 52.499999" height="70" preserveAspectRatio="xMidYMid meet" version="1.2"><defs><clipPath id="1041bd08d4"><path d="M 4.65625 7.152344 L 40.207031 7.152344 L 40.207031 44.84375 L 4.65625 44.84375 Z M 4.65625 7.152344 "/></clipPath></defs><g id="dcc212cf20"><g style="fill:#ffffff;fill-opacity:1;"><g transform="translate(37.603386, 42.718157)"><path style="stroke:none" d="M 10.75 -5.1875 L 22.1875 -5.1875 L 22.1875 0 L 4.953125 0 L 4.953125 -34.625 L 10.75 -34.625 Z M 10.75 -5.1875 "/></g></g><g style="fill:#ffffff;fill-opacity:1;"><g transform="translate(59.906514, 42.718157)"><path style="stroke:none" d="M 19.640625 -24.421875 L 25.21875 -24.421875 L 25.21875 0 L 19.90625 0 L 19.765625 -3.0625 C 18.953125 -1.945312 17.898438 -1.078125 16.609375 -0.453125 C 15.328125 0.160156 13.867188 0.46875 12.234375 0.46875 C 10.421875 0.46875 8.859375 0.144531 7.546875 -0.5 C 6.234375 -1.15625 5.222656 -2.113281 4.515625 -3.375 C 3.804688 -4.632812 3.453125 -6.171875 3.453125 -7.984375 L 3.453125 -24.421875 L 9.078125 -24.421875 L 9.078125 -9.203125 C 9.078125 -7.972656 9.300781 -6.984375 9.75 -6.234375 C 10.195312 -5.492188 10.785156 -4.953125 11.515625 -4.609375 C 12.253906 -4.273438 13.050781 -4.109375 13.90625 -4.109375 C 14.945312 -4.109375 15.898438 -4.316406 16.765625 -4.734375 C 17.628906 -5.148438 18.320312 -5.816406 18.84375 -6.734375 C 19.375 -7.660156 19.640625 -8.878906 19.640625 -10.390625 Z M 19.640625 -24.421875 "/></g></g><g style="fill:#ffffff;fill-opacity:1;"><g transform="translate(87.986057, 42.718157)"><path style="stroke:none" d="M 16.9375 -24.890625 C 18.769531 -24.890625 20.34375 -24.5625 21.65625 -23.90625 C 22.96875 -23.25 23.972656 -22.289062 24.671875 -21.03125 C 25.378906 -19.78125 25.734375 -18.25 25.734375 -16.4375 L 25.734375 0 L 20.09375 0 L 20.09375 -15.21875 C 20.09375 -16.445312 19.867188 -17.429688 19.421875 -18.171875 C 18.984375 -18.921875 18.398438 -19.460938 17.671875 -19.796875 C 16.941406 -20.140625 16.148438 -20.3125 15.296875 -20.3125 C 14.273438 -20.3125 13.328125 -20.101562 12.453125 -19.6875 C 11.578125 -19.269531 10.875 -18.601562 10.34375 -17.6875 C 9.820312 -16.769531 9.554688 -15.550781 9.546875 -14.03125 L 9.546875 0 L 3.953125 0 L 3.953125 -24.421875 L 9.546875 -24.421875 L 9.546875 -21.53125 C 10.347656 -22.582031 11.382812 -23.40625 12.65625 -24 C 13.925781 -24.59375 15.351562 -24.890625 16.9375 -24.890625 Z M 16.9375 -24.890625 "/></g></g><g style="fill:#ffffff;fill-opacity:1;"><g transform="translate(116.089872, 42.718157)"><path style="stroke:none" d="M 14.78125 0.484375 C 12.9375 0.484375 11.234375 0.191406 9.671875 -0.390625 C 8.109375 -0.972656 6.75 -1.8125 5.59375 -2.90625 C 4.4375 -4.007812 3.535156 -5.347656 2.890625 -6.921875 C 2.253906 -8.492188 1.9375 -10.265625 1.9375 -12.234375 C 1.9375 -14.191406 2.253906 -15.953125 2.890625 -17.515625 C 3.535156 -19.078125 4.429688 -20.40625 5.578125 -21.5 C 6.734375 -22.601562 8.09375 -23.445312 9.65625 -24.03125 C 11.21875 -24.613281 12.925781 -24.90625 14.78125 -24.90625 C 16.644531 -24.90625 18.359375 -24.613281 19.921875 -24.03125 C 21.492188 -23.445312 22.851562 -22.601562 24 -21.5 C 25.15625 -20.40625 26.050781 -19.078125 26.6875 -17.515625 C 27.332031 -15.953125 27.65625 -14.191406 27.65625 -12.234375 C 27.65625 -10.265625 27.332031 -8.492188 26.6875 -6.921875 C 26.050781 -5.347656 25.15625 -4.007812 24 -2.90625 C 22.84375 -1.8125 21.484375 -0.972656 19.921875 -0.390625 C 18.359375 0.191406 16.644531 0.484375 14.78125 0.484375 Z M 14.734375 -4.046875 C 16.160156 -4.046875 17.421875 -4.382812 18.515625 -5.0625 C 19.617188 -5.75 20.488281 -6.703125 21.125 -7.921875 C 21.769531 -9.148438 22.09375 -10.585938 22.09375 -12.234375 C 22.09375 -13.890625 21.769531 -15.328125 21.125 -16.546875 C 20.488281 -17.765625 19.617188 -18.707031 18.515625 -19.375 C 17.421875 -20.050781 16.160156 -20.390625 14.734375 -20.390625 C 13.335938 -20.390625 12.09375 -20.050781 11 -19.375 C 9.914062 -18.707031 9.0625 -17.765625 8.4375 -16.546875 C 7.8125 -15.328125 7.5 -13.890625 7.5 -12.234375 C 7.5 -10.585938 7.8125 -9.148438 8.4375 -7.921875 C 9.0625 -6.703125 9.914062 -5.75 11 -5.0625 C 12.09375 -4.382812 13.335938 -4.046875 14.734375 -4.046875 Z M 14.734375 -4.046875 "/></g></g><g style="fill:#ffffff;fill-opacity:1;"><g transform="translate(144.582016, 42.718157)"><path style="stroke:none" d="M 9.703125 0.46875 C 8.722656 0.46875 7.78125 0.335938 6.875 0.078125 C 5.96875 -0.171875 5.160156 -0.554688 4.453125 -1.078125 C 3.753906 -1.609375 3.203125 -2.296875 2.796875 -3.140625 C 2.390625 -3.992188 2.1875 -5.007812 2.1875 -6.1875 C 2.1875 -7.5 2.429688 -8.597656 2.921875 -9.484375 C 3.421875 -10.378906 4.097656 -11.113281 4.953125 -11.6875 C 5.804688 -12.257812 6.796875 -12.722656 7.921875 -13.078125 C 9.046875 -13.441406 10.25 -13.734375 11.53125 -13.953125 L 15.21875 -14.640625 C 16.03125 -14.796875 16.609375 -15.054688 16.953125 -15.421875 C 17.304688 -15.785156 17.484375 -16.257812 17.484375 -16.84375 C 17.484375 -17.851562 17.25 -18.644531 16.78125 -19.21875 C 16.320312 -19.800781 15.726562 -20.21875 15 -20.46875 C 14.269531 -20.726562 13.503906 -20.859375 12.703125 -20.859375 C 11.828125 -20.859375 11.015625 -20.710938 10.265625 -20.421875 C 9.523438 -20.140625 8.914062 -19.6875 8.4375 -19.0625 C 7.957031 -18.445312 7.65625 -17.613281 7.53125 -16.5625 L 2.5 -17.484375 C 2.914062 -20.003906 4.019531 -21.863281 5.8125 -23.0625 C 7.601562 -24.257812 10.007812 -24.859375 13.03125 -24.859375 C 14.25 -24.859375 15.441406 -24.726562 16.609375 -24.46875 C 17.773438 -24.207031 18.828125 -23.757812 19.765625 -23.125 C 20.703125 -22.488281 21.445312 -21.609375 22 -20.484375 C 22.5625 -19.367188 22.84375 -17.953125 22.84375 -16.234375 L 22.84375 -6.765625 C 22.84375 -5.617188 23.015625 -4.835938 23.359375 -4.421875 C 23.710938 -4.015625 24.3125 -3.8125 25.15625 -3.8125 L 25.546875 -3.8125 L 25.546875 0 L 22.890625 0 C 21.515625 0 20.414062 -0.253906 19.59375 -0.765625 C 18.769531 -1.273438 18.21875 -2.097656 17.9375 -3.234375 L 17.671875 -3.234375 C 17.046875 -2.335938 16.296875 -1.617188 15.421875 -1.078125 C 14.554688 -0.535156 13.632812 -0.144531 12.65625 0.09375 C 11.675781 0.34375 10.691406 0.46875 9.703125 0.46875 Z M 11.015625 -3.9375 C 12.296875 -3.9375 13.445312 -4.234375 14.46875 -4.828125 C 15.5 -5.429688 16.316406 -6.273438 16.921875 -7.359375 C 17.535156 -8.453125 17.84375 -9.742188 17.84375 -11.234375 L 11.609375 -9.859375 C 10.328125 -9.617188 9.335938 -9.253906 8.640625 -8.765625 C 7.941406 -8.273438 7.59375 -7.570312 7.59375 -6.65625 C 7.59375 -5.695312 7.925781 -5.003906 8.59375 -4.578125 C 9.257812 -4.148438 10.066406 -3.9375 11.015625 -3.9375 Z M 11.015625 -3.9375 "/></g></g><g style="fill:#ffffff;fill-opacity:1;"><g transform="translate(170.477201, 42.718157)"><path style="stroke:none" d="M 7.984375 0.484375 C 7.367188 0.484375 6.800781 0.328125 6.28125 0.015625 C 5.769531 -0.285156 5.351562 -0.691406 5.03125 -1.203125 C 4.71875 -1.722656 4.5625 -2.289062 4.5625 -2.90625 C 4.5625 -3.539062 4.71875 -4.113281 5.03125 -4.625 C 5.351562 -5.144531 5.769531 -5.5625 6.28125 -5.875 C 6.800781 -6.1875 7.367188 -6.34375 7.984375 -6.34375 C 8.617188 -6.34375 9.191406 -6.1875 9.703125 -5.875 C 10.222656 -5.5625 10.632812 -5.144531 10.9375 -4.625 C 11.25 -4.113281 11.40625 -3.539062 11.40625 -2.90625 C 11.40625 -2.289062 11.25 -1.722656 10.9375 -1.203125 C 10.632812 -0.691406 10.222656 -0.285156 9.703125 0.015625 C 9.191406 0.328125 8.617188 0.484375 7.984375 0.484375 Z M 7.984375 0.484375 "/></g></g><g clip-rule="nonzero" clip-path="url(#1041bd08d4)"><path style=" stroke:none;fill-rule:evenodd;fill:#ffffff;fill-opacity:1;" d="M 4.792969 29.667969 C 4.691406 28.863281 4.613281 27.503906 4.683594 25.964844 C 4.753906 24.425781 4.972656 22.714844 5.28125 21.203125 C 5.589844 19.683594 5.988281 18.363281 6.355469 17.453125 C 6.722656 16.535156 7.054688 16.019531 7.148438 15.925781 C 7.242188 15.839844 7.09375 16.175781 6.8125 17 C 6.535156 17.820312 6.125 19.136719 5.882812 20.46875 C 5.644531 21.804688 5.578125 23.160156 5.59375 24.277344 C 5.609375 25.394531 5.707031 26.277344 5.777344 26.789062 C 5.847656 27.304688 5.890625 27.453125 5.8125 27.742188 C 5.734375 28.027344 5.535156 28.460938 5.414062 28.867188 C 5.285156 29.273438 5.226562 29.652344 5.1875 29.9375 C 5.15625 30.222656 5.132812 30.414062 5.132812 30.570312 C 5.125 30.730469 5.132812 30.851562 5.078125 30.785156 C 5.015625 30.722656 4.890625 30.476562 4.792969 29.667969 Z M 20.113281 10.65625 C 20.449219 10.109375 21.023438 9.304688 21.648438 8.71875 C 22.277344 8.125 22.960938 7.753906 23.644531 7.558594 C 24.328125 7.363281 25.011719 7.351562 25.886719 7.484375 C 26.761719 7.613281 27.824219 7.890625 28.808594 8.21875 C 29.792969 8.550781 30.691406 8.941406 31.417969 9.320312 C 32.144531 9.707031 32.695312 10.089844 33.191406 10.453125 C 33.683594 10.820312 34.121094 11.171875 34.429688 11.453125 C 34.738281 11.730469 34.921875 11.933594 34.839844 11.953125 C 34.753906 11.976562 34.402344 11.8125 33.664062 11.582031 C 32.933594 11.351562 31.820312 11.046875 30.648438 10.785156 C 29.472656 10.523438 28.242188 10.304688 27.054688 10.269531 C 25.871094 10.234375 24.738281 10.382812 23.722656 10.574219 C 22.707031 10.769531 21.8125 11.011719 21.1875 11.191406 C 20.5625 11.375 20.210938 11.496094 19.984375 11.589844 C 19.761719 11.679688 19.660156 11.742188 19.664062 11.625 C 19.667969 11.503906 19.773438 11.207031 20.113281 10.65625 Z M 26.71875 38.992188 C 27.460938 38.945312 29.042969 38.917969 30.605469 38.550781 C 32.167969 38.1875 33.710938 37.480469 34.9375 36.773438 C 36.167969 36.070312 37.085938 35.363281 37.816406 34.761719 C 38.542969 34.160156 39.089844 33.660156 39.4375 33.292969 C 39.785156 32.925781 39.941406 32.691406 40.039062 32.53125 C 40.140625 32.371094 40.179688 32.277344 40.199219 32.375 C 40.214844 32.472656 40.207031 32.761719 39.964844 33.476562 C 39.722656 34.1875 39.246094 35.324219 38.464844 36.519531 C 37.6875 37.714844 36.605469 38.964844 35.765625 39.804688 C 34.921875 40.644531 34.316406 41.066406 33.535156 41.269531 C 32.757812 41.46875 31.804688 41.449219 30.796875 41.222656 C 29.792969 40.996094 28.726562 40.566406 27.941406 40.1875 C 27.160156 39.808594 26.660156 39.480469 26.363281 39.285156 C 26.066406 39.09375 25.976562 39.035156 26.71875 38.992188 Z M 18.355469 35.972656 C 18.585938 36.492188 18.996094 37.332031 19.46875 38.140625 C 19.941406 38.945312 20.472656 39.722656 21.113281 40.492188 C 21.75 41.265625 22.492188 42.035156 23.253906 42.613281 C 24.019531 43.195312 24.808594 43.59375 25.601562 43.828125 C 26.394531 44.0625 27.195312 44.144531 28.160156 44.011719 C 29.128906 43.886719 30.265625 43.546875 31.035156 43.292969 C 31.800781 43.039062 32.191406 42.859375 32.378906 42.757812 C 32.5625 42.648438 32.53125 42.609375 32.175781 42.53125 C 31.816406 42.457031 31.128906 42.34375 30.027344 41.953125 C 28.929688 41.566406 27.410156 40.902344 26.144531 40.234375 C 24.875 39.5625 23.859375 38.882812 22.914062 38.328125 C 21.972656 37.777344 21.097656 37.347656 20.40625 36.929688 C 19.71875 36.511719 19.207031 36.097656 18.882812 35.839844 C 18.558594 35.578125 18.425781 35.464844 18.3125 35.363281 C 18.203125 35.261719 18.109375 35.160156 18.089844 35.210938 C 18.070312 35.261719 18.125 35.457031 18.355469 35.972656 Z M 12.765625 19.304688 C 12.695312 18.425781 12.640625 17.132812 12.726562 16.03125 C 12.8125 14.933594 13.035156 14.027344 13.378906 13.128906 C 13.722656 12.226562 14.183594 11.335938 14.691406 10.667969 C 15.207031 9.996094 15.765625 9.542969 16.425781 9.113281 C 17.085938 8.683594 17.847656 8.273438 18.484375 7.992188 C 19.113281 7.710938 19.621094 7.554688 20.121094 7.421875 C 20.625 7.292969 21.121094 7.179688 21.351562 7.15625 C 21.582031 7.132812 21.542969 7.199219 21.332031 7.363281 C 21.121094 7.535156 20.75 7.804688 20.253906 8.523438 C 19.761719 9.246094 19.140625 10.410156 18.628906 11.285156 C 18.105469 12.164062 17.6875 12.753906 17.039062 13.65625 C 16.390625 14.550781 15.519531 15.761719 14.898438 16.757812 C 14.277344 17.75 13.914062 18.53125 13.671875 19.199219 C 13.425781 19.863281 13.304688 20.410156 13.238281 20.746094 C 13.171875 21.082031 13.15625 21.207031 13.128906 21.234375 C 13.09375 21.257812 13.046875 21.179688 12.980469 20.910156 C 12.914062 20.640625 12.835938 20.183594 12.765625 19.304688 Z M 17.125 37.945312 C 17.121094 37.785156 17.160156 37.570312 17.308594 37.421875 C 17.453125 37.277344 17.714844 37.195312 17.921875 37.214844 C 18.125 37.234375 18.273438 37.359375 18.375 37.519531 C 18.484375 37.679688 18.546875 37.878906 18.519531 38.046875 C 18.492188 38.214844 18.378906 38.359375 18.210938 38.445312 C 18.042969 38.535156 17.832031 38.574219 17.65625 38.546875 C 17.484375 38.519531 17.347656 38.414062 17.261719 38.316406 C 17.171875 38.214844 17.128906 38.105469 17.125 37.945312 Z M 10.804688 19.109375 C 10.746094 18.878906 10.800781 18.644531 10.9375 18.480469 C 11.074219 18.320312 11.289062 18.234375 11.476562 18.210938 C 11.660156 18.1875 11.8125 18.234375 11.945312 18.332031 C 12.078125 18.433594 12.1875 18.585938 12.234375 18.761719 C 12.285156 18.933594 12.269531 19.132812 12.1875 19.296875 C 12.097656 19.460938 11.945312 19.59375 11.769531 19.671875 C 11.597656 19.75 11.402344 19.769531 11.21875 19.671875 C 11.035156 19.570312 10.863281 19.34375 10.804688 19.109375 Z M 14.34375 30.65625 C 14.257812 30.851562 14.136719 31.140625 14.058594 31.496094 C 13.984375 31.851562 13.960938 32.273438 13.96875 32.574219 C 13.976562 32.875 14.019531 33.050781 14.089844 33.171875 C 14.152344 33.289062 14.246094 33.355469 14.367188 33.378906 C 14.488281 33.40625 14.632812 33.394531 14.726562 33.269531 C 14.820312 33.144531 14.855469 32.898438 14.796875 32.582031 C 14.742188 32.269531 14.597656 31.882812 14.519531 31.585938 C 14.449219 31.289062 14.445312 31.082031 14.457031 30.898438 C 14.46875 30.71875 14.503906 30.550781 14.519531 30.445312 C 14.535156 30.34375 14.535156 30.296875 14.507812 30.328125 C 14.480469 30.351562 14.429688 30.460938 14.34375 30.65625 Z M 12.910156 27.851562 C 12.675781 27.753906 12.285156 27.574219 11.933594 27.3125 C 11.585938 27.042969 11.28125 26.683594 11.109375 26.394531 C 10.9375 26.101562 10.902344 25.878906 10.917969 25.699219 C 10.933594 25.523438 11 25.394531 11.09375 25.324219 C 11.1875 25.257812 11.308594 25.246094 11.460938 25.332031 C 11.613281 25.421875 11.792969 25.601562 11.980469 25.90625 C 12.164062 26.210938 12.359375 26.632812 12.511719 26.945312 C 12.667969 27.261719 12.785156 27.46875 12.886719 27.605469 C 12.984375 27.746094 13.070312 27.816406 13.132812 27.867188 C 13.195312 27.921875 13.238281 27.957031 13.222656 27.964844 C 13.207031 27.96875 13.140625 27.953125 12.910156 27.851562 Z M 12.210938 29.605469 C 11.777344 29.3125 11.011719 28.777344 10.285156 28.101562 C 9.558594 27.429688 8.867188 26.621094 8.367188 25.855469 C 7.867188 25.085938 7.554688 24.355469 7.3125 23.46875 C 7.070312 22.585938 6.894531 21.546875 6.929688 20.472656 C 6.960938 19.398438 7.207031 18.292969 7.652344 17.089844 C 8.097656 15.886719 8.746094 14.585938 9.425781 13.597656 C 10.109375 12.609375 10.820312 11.929688 11.441406 11.382812 C 12.058594 10.832031 12.578125 10.410156 12.921875 10.140625 C 13.265625 9.867188 13.4375 9.753906 13.453125 9.808594 C 13.464844 9.863281 13.316406 10.09375 13.085938 10.523438 C 12.859375 10.949219 12.546875 11.578125 12.371094 12.386719 C 12.199219 13.191406 12.152344 14.179688 11.980469 14.96875 C 11.8125 15.761719 11.511719 16.355469 11.058594 17.015625 C 10.609375 17.671875 10.007812 18.394531 9.640625 18.914062 C 9.277344 19.441406 9.148438 19.773438 9.050781 20.039062 C 8.953125 20.304688 8.882812 20.507812 8.835938 20.664062 C 8.792969 20.824219 8.769531 20.941406 8.816406 20.960938 C 8.859375 20.984375 8.972656 20.917969 9.152344 20.8125 C 9.335938 20.707031 9.585938 20.570312 9.898438 20.507812 C 10.207031 20.449219 10.574219 20.46875 10.902344 20.515625 C 11.230469 20.566406 11.511719 20.648438 11.824219 20.855469 C 12.132812 21.0625 12.476562 21.398438 12.691406 21.789062 C 12.902344 22.179688 12.984375 22.628906 13.019531 22.953125 C 13.058594 23.28125 13.042969 23.484375 13.011719 23.648438 C 12.980469 23.816406 12.929688 23.941406 12.882812 24.035156 C 12.835938 24.125 12.796875 24.179688 12.765625 24.175781 C 12.734375 24.164062 12.707031 24.097656 12.679688 24.007812 C 12.644531 23.921875 12.605469 23.8125 12.535156 23.746094 C 12.460938 23.6875 12.363281 23.664062 12.257812 23.664062 C 12.15625 23.664062 12.054688 23.6875 11.972656 23.746094 C 11.886719 23.8125 11.820312 23.921875 11.714844 24.039062 C 11.609375 24.160156 11.464844 24.292969 11.269531 24.386719 C 11.078125 24.484375 10.839844 24.539062 10.613281 24.554688 C 10.390625 24.570312 10.183594 24.539062 9.972656 24.449219 C 9.753906 24.355469 9.527344 24.195312 9.367188 23.996094 C 9.203125 23.792969 9.109375 23.542969 9.082031 23.304688 C 9.058594 23.066406 9.105469 22.835938 9.183594 22.664062 C 9.265625 22.488281 9.378906 22.367188 9.515625 22.285156 C 9.652344 22.207031 9.808594 22.171875 9.941406 22.160156 C 10.074219 22.148438 10.183594 22.171875 10.300781 22.21875 C 10.414062 22.265625 10.527344 22.34375 10.597656 22.4375 C 10.667969 22.53125 10.683594 22.640625 10.691406 22.757812 C 10.691406 22.878906 10.683594 23.003906 10.652344 23.089844 C 10.621094 23.175781 10.574219 23.222656 10.492188 23.246094 C 10.410156 23.261719 10.292969 23.257812 10.222656 23.234375 C 10.152344 23.210938 10.132812 23.175781 10.101562 23.164062 C 10.070312 23.152344 10.035156 23.164062 10.019531 23.199219 C 10.003906 23.234375 10.003906 23.292969 10.054688 23.347656 C 10.097656 23.398438 10.191406 23.449219 10.328125 23.457031 C 10.457031 23.464844 10.625 23.433594 10.769531 23.332031 C 10.914062 23.226562 11.03125 23.050781 11.078125 22.859375 C 11.125 22.664062 11.101562 22.449219 11.015625 22.277344 C 10.929688 22.101562 10.78125 21.964844 10.613281 21.886719 C 10.449219 21.804688 10.265625 21.777344 10.058594 21.789062 C 9.847656 21.792969 9.609375 21.84375 9.414062 21.960938 C 9.214844 22.074219 9.0625 22.253906 8.945312 22.480469 C 8.828125 22.714844 8.746094 22.996094 8.707031 23.3125 C 8.664062 23.628906 8.664062 23.980469 8.761719 24.363281 C 8.859375 24.75 9.054688 25.179688 9.320312 25.597656 C 9.582031 26.015625 9.910156 26.429688 10.332031 26.859375 C 10.753906 27.289062 11.273438 27.738281 11.6875 28.046875 C 12.101562 28.347656 12.402344 28.511719 12.726562 28.65625 C 13.046875 28.800781 13.394531 28.929688 13.65625 29.003906 C 13.917969 29.074219 14.097656 29.09375 14.207031 29.105469 C 14.308594 29.117188 14.351562 29.121094 14.34375 29.179688 C 14.335938 29.238281 14.285156 29.351562 14.1875 29.589844 C 14.085938 29.824219 13.9375 30.179688 13.796875 30.75 C 13.660156 31.320312 13.535156 32.101562 13.476562 32.714844 C 13.414062 33.328125 13.421875 33.769531 13.480469 34.164062 C 13.539062 34.558594 13.644531 34.910156 13.757812 35.183594 C 13.871094 35.453125 13.992188 35.640625 14.148438 35.8125 C 14.304688 35.988281 14.488281 36.148438 14.671875 36.253906 C 14.847656 36.355469 15.027344 36.394531 15.238281 36.410156 C 15.445312 36.425781 15.6875 36.40625 15.867188 36.34375 C 16.050781 36.285156 16.167969 36.179688 16.25 36.023438 C 16.332031 35.875 16.378906 35.675781 16.363281 35.464844 C 16.34375 35.253906 16.257812 35.03125 16.164062 34.863281 C 16.070312 34.703125 15.96875 34.601562 15.859375 34.546875 C 15.75 34.488281 15.632812 34.480469 15.503906 34.488281 C 15.375 34.5 15.242188 34.53125 15.140625 34.59375 C 15.035156 34.65625 14.960938 34.75 14.921875 34.835938 C 14.882812 34.921875 14.875 35 14.90625 35.066406 C 14.9375 35.132812 15.003906 35.195312 15.078125 35.203125 C 15.152344 35.207031 15.230469 35.160156 15.277344 35.117188 C 15.332031 35.070312 15.355469 35.035156 15.417969 35.015625 C 15.480469 34.992188 15.578125 34.992188 15.664062 35.03125 C 15.75 35.070312 15.824219 35.148438 15.863281 35.261719 C 15.902344 35.375 15.910156 35.519531 15.882812 35.648438 C 15.851562 35.773438 15.785156 35.878906 15.679688 35.949219 C 15.582031 36.019531 15.449219 36.050781 15.277344 36.039062 C 15.105469 36.035156 14.898438 35.976562 14.738281 35.890625 C 14.578125 35.804688 14.464844 35.679688 14.371094 35.523438 C 14.285156 35.375 14.222656 35.195312 14.210938 35 C 14.195312 34.804688 14.234375 34.589844 14.292969 34.410156 C 14.355469 34.226562 14.441406 34.078125 14.589844 33.957031 C 14.742188 33.84375 14.957031 33.757812 15.125 33.710938 C 15.292969 33.660156 15.410156 33.648438 15.5 33.644531 C 15.589844 33.636719 15.644531 33.632812 15.679688 33.597656 C 15.707031 33.5625 15.714844 33.496094 15.699219 33.375 C 15.6875 33.253906 15.65625 33.078125 15.640625 32.949219 C 15.625 32.824219 15.625 32.746094 15.640625 32.714844 C 15.65625 32.679688 15.691406 32.695312 15.789062 32.789062 C 15.878906 32.886719 16.035156 33.0625 16.230469 33.277344 C 16.421875 33.488281 16.65625 33.734375 16.820312 33.945312 C 16.988281 34.152344 17.089844 34.328125 17.167969 34.578125 C 17.25 34.828125 17.308594 35.152344 17.316406 35.441406 C 17.324219 35.726562 17.277344 35.976562 17.175781 36.199219 C 17.078125 36.421875 16.921875 36.617188 16.714844 36.785156 C 16.503906 36.957031 16.246094 37.101562 15.976562 37.207031 C 15.707031 37.3125 15.425781 37.371094 15.199219 37.398438 C 14.980469 37.425781 14.8125 37.421875 14.679688 37.414062 C 14.550781 37.410156 14.453125 37.40625 14.390625 37.417969 C 14.332031 37.429688 14.304688 37.457031 14.355469 37.546875 C 14.40625 37.636719 14.535156 37.789062 14.703125 38.003906 C 14.867188 38.214844 15.066406 38.492188 15.445312 38.734375 C 15.828125 38.976562 16.390625 39.183594 16.988281 39.367188 C 17.585938 39.554688 18.21875 39.71875 18.761719 39.96875 C 19.304688 40.222656 19.753906 40.566406 20.152344 40.949219 C 20.554688 41.328125 20.910156 41.75 21.226562 42.164062 C 21.546875 42.578125 21.832031 42.988281 22.0625 43.277344 C 22.289062 43.570312 22.464844 43.742188 22.730469 43.925781 C 22.996094 44.109375 23.351562 44.296875 23.628906 44.417969 C 23.90625 44.539062 24.101562 44.59375 24.257812 44.640625 C 24.417969 44.6875 24.542969 44.730469 24.5625 44.761719 C 24.585938 44.792969 24.503906 44.808594 24.320312 44.828125 C 24.136719 44.84375 23.851562 44.867188 23.082031 44.769531 C 22.316406 44.667969 21.0625 44.445312 20.03125 44.117188 C 19 43.792969 18.183594 43.363281 17.300781 42.703125 C 16.421875 42.042969 15.472656 41.148438 14.726562 40.164062 C 13.980469 39.179688 13.429688 38.101562 13.070312 37.101562 C 12.707031 36.105469 12.53125 35.191406 12.484375 34.257812 C 12.4375 33.328125 12.519531 32.386719 12.582031 31.734375 C 12.644531 31.082031 12.691406 30.722656 12.726562 30.496094 C 12.761719 30.269531 12.78125 30.183594 12.800781 30.121094 C 12.816406 30.058594 12.824219 30.019531 12.78125 29.976562 C 12.738281 29.9375 12.640625 29.898438 12.210938 29.605469 Z M 5.449219 32.03125 C 5.535156 31.964844 5.671875 31.855469 5.757812 31.6875 C 5.839844 31.519531 5.875 31.296875 5.894531 31.089844 C 5.914062 30.882812 5.917969 30.695312 6.027344 30.496094 C 6.136719 30.289062 6.351562 30.070312 6.585938 29.902344 C 6.820312 29.734375 7.078125 29.617188 7.335938 29.539062 C 7.597656 29.460938 7.863281 29.429688 8.023438 29.414062 C 8.179688 29.394531 8.230469 29.394531 8.167969 29.34375 C 8.101562 29.296875 7.917969 29.203125 7.679688 28.929688 C 7.441406 28.652344 7.140625 28.1875 6.921875 27.734375 C 6.699219 27.28125 6.558594 26.832031 6.472656 26.332031 C 6.386719 25.832031 6.355469 25.285156 6.375 24.902344 C 6.394531 24.511719 6.464844 24.292969 6.53125 24.128906 C 6.601562 23.960938 6.667969 23.851562 6.714844 23.875 C 6.761719 23.898438 6.785156 24.058594 6.894531 24.425781 C 7.007812 24.800781 7.207031 25.378906 7.558594 26.003906 C 7.910156 26.625 8.414062 27.285156 8.941406 27.832031 C 9.460938 28.378906 10.003906 28.8125 10.496094 29.15625 C 10.988281 29.503906 11.429688 29.769531 11.707031 29.933594 C 11.984375 30.097656 12.09375 30.160156 12.136719 30.253906 C 12.175781 30.351562 12.152344 30.476562 12.050781 31.003906 C 11.949219 31.53125 11.769531 32.457031 11.675781 33.21875 C 11.582031 33.976562 11.574219 34.570312 11.613281 35.222656 C 11.652344 35.875 11.738281 36.585938 11.851562 37.140625 C 11.964844 37.699219 12.109375 38.09375 12.214844 38.328125 C 12.320312 38.566406 12.382812 38.640625 12.351562 38.664062 C 12.320312 38.6875 12.199219 38.65625 11.917969 38.433594 C 11.636719 38.207031 11.195312 37.785156 10.789062 37.257812 C 10.382812 36.722656 10.011719 36.085938 9.785156 35.460938 C 9.554688 34.835938 9.464844 34.226562 9.4375 33.75 C 9.410156 33.273438 9.441406 32.925781 9.457031 32.746094 C 9.472656 32.566406 9.464844 32.546875 9.394531 32.617188 C 9.320312 32.691406 9.175781 32.851562 8.929688 32.988281 C 8.683594 33.125 8.339844 33.230469 8.003906 33.257812 C 7.667969 33.285156 7.347656 33.222656 7.082031 33.109375 C 6.8125 32.996094 6.605469 32.828125 6.417969 32.6875 C 6.226562 32.542969 6.0625 32.417969 5.90625 32.339844 C 5.757812 32.261719 5.625 32.234375 5.519531 32.210938 C 5.417969 32.1875 5.34375 32.167969 5.332031 32.148438 C 5.320312 32.125 5.359375 32.101562 5.449219 32.03125 Z M 6.515625 34.320312 C 6.847656 34.886719 7.46875 35.878906 8.523438 37.101562 C 9.578125 38.316406 11.0625 39.765625 12.257812 40.761719 C 13.453125 41.757812 14.355469 42.304688 15.003906 42.65625 C 15.65625 43.011719 16.054688 43.175781 16.265625 43.230469 C 16.472656 43.289062 16.496094 43.246094 16.234375 43.078125 C 15.976562 42.917969 15.4375 42.632812 14.5625 42.027344 C 13.691406 41.417969 12.484375 40.484375 11.351562 39.257812 C 10.222656 38.035156 9.171875 36.519531 8.601562 35.707031 C 8.027344 34.894531 7.9375 34.789062 7.765625 34.652344 C 7.597656 34.519531 7.351562 34.355469 7.128906 34.199219 C 6.90625 34.042969 6.710938 33.902344 6.566406 33.785156 C 6.417969 33.667969 6.324219 33.585938 6.25 33.539062 C 6.179688 33.492188 6.128906 33.488281 6.128906 33.550781 C 6.128906 33.617188 6.179688 33.757812 6.515625 34.320312 "/></g></g></svg>